# xmcd
#
# Track frame offsets:
#	150
#	24353
#	54195
#	80031
#	101959
#	134106
#	159872
#
# Disc length: 2320
#
# Revision: 1
# Processed by: cddbd v1.5.1PL0 Copyright (c) Steve Scherf et al.
# Submitted via: uFREEDB ActiveX Control 1.5
# Normalized: r0:TRMNUM
#
DISCID=55090e07
DTITLE=Remelexo - A Sedução do Forró
DYEAR=1900
DGENRE=Country
TTITLE0=Esperando na janela - Agarradinho com Você
TTITLE1=Bom de cama - Peruca de Touro - Chamego 
TTITLE2=Amor para mais de mil - No Remelexo
TTITLE3=Benedita aparecida - A loira e a morena 
TTITLE4=Pra ficar 10 - Ela não veio - Moleca
TTITLE5=Gemidinho - Calcinha Preta
TTITLE6=Cumade Cumpadi
EXTD=
EXTT0=
EXTT1=
EXTT2=
EXTT3=
EXTT4=
EXTT5=
EXTT6=
PLAYORDER=
